HIERARCHY
ROOT hip
{
  OFFSET 0 0 0
  CHANNELS 6 Xposition Yposition Zposition Zrotation Yrotation Xrotation
  JOINT abdomen
  {
    OFFSET 0 20.6881 -0.73152
    CHANNELS 3 Zrotation Xrotation Yrotation
    JOINT chest
    {
      OFFSET 0 11.7043 -0.48768
      CHANNELS 3 Zrotation Xrotation Yrotation
      JOINT neck
      {
        OFFSET 0 22.1894 -2.19456
        CHANNELS 3 Zrotation Xrotation Yrotation
        JOINT head
        {
          OFFSET -0.24384 7.07133 1.2192
          CHANNELS 3 Zrotation Xrotation Yrotation
          JOINT leftEye
          {
            OFFSET 4.14528 8.04674 8.04672
            CHANNELS 3 Zrotation Xrotation Yrotation
            End Site
            {
              OFFSET 1 0 0
            }
          }
          JOINT rightEye
          {
            OFFSET -3.6576 8.04674 8.04672
            CHANNELS 3 Zrotation Xrotation Yrotation
            End Site
            {
              OFFSET 1 0 0
            }
          }
        }
      }
      JOINT rCollar
      {
        OFFSET -2.68224 19.2634 -4.8768
        CHANNELS 3 Zrotation Xrotation Yrotation
        JOINT rShldr
        {
          OFFSET -8.77824 -1.95073 1.46304
          CHANNELS 3 Zrotation Xrotation Yrotation
          JOINT rForeArm
          {
            OFFSET -28.1742 -1.7115 0.48768
            CHANNELS 3 Zrotation Xrotation Yrotation
            JOINT rHand
            {
              OFFSET -22.5879 0.773209 7.07136
              CHANNELS 3 Zrotation Xrotation Yrotation
              JOINT rThumb1
              {
                OFFSET -1.2192 -0.487915 3.41376
                CHANNELS 3 Zrotation Xrotation Yrotation
                JOINT rThumb2
                {
                  OFFSET -3.37035 -0.52449 3.41376
                  CHANNELS 3 Zrotation Xrotation Yrotation
                  End Site
                  {
                    OFFSET -1.78271 -1.18214 1.43049
                  }
                }
              }
              JOINT rIndex1
              {
                OFFSET -7.75947 0.938293 5.60832
                CHANNELS 3 Zrotation Xrotation Yrotation
                JOINT rIndex2
                {
                  OFFSET -2.54057 -0.884171 1.56538
                  CHANNELS 3 Zrotation Xrotation Yrotation
                  End Site
                  {
                    OFFSET -1.62519 -0.234802 1.16502
                  }
                }
              }
              JOINT rMid1
              {
                OFFSET -8.24714 1.18213 3.41376
                CHANNELS 3 Zrotation Xrotation Yrotation
                JOINT rMid2
                {
                  OFFSET -3.10165 -0.590103 1.0647
                  CHANNELS 3 Zrotation Xrotation Yrotation
                  End Site
                  {
                    OFFSET -2.48547 -0.328903 0.83742
                  }
                }
              }
              JOINT rRing1
              {
                OFFSET -8.82822 0.546677 1.51678
                CHANNELS 3 Zrotation Xrotation Yrotation
                JOINT rRing2
                {
                  OFFSET -2.60934 -0.819778 -0.0198488
                  CHANNELS 3 Zrotation Xrotation Yrotation
                  End Site
                  {
                    OFFSET -2.33842 -0.294052 0.168128
                  }
                }
              }
              JOINT rPinky1
              {
                OFFSET -8.27202 -0.0477905 -0.4584
                CHANNELS 3 Zrotation Xrotation Yrotation
                JOINT rPinky2
                {
                  OFFSET -1.82734 -0.647385 -0.700984
                  CHANNELS 3 Zrotation Xrotation Yrotation
                  End Site
                  {
                    OFFSET -1.69225 -0.51767 -0.607171
                  }
                }
              }
            }
          }
        }
      }
      JOINT lCollar
      {
        OFFSET 2.68224 19.2634 -4.8768
        CHANNELS 3 Zrotation Xrotation Yrotation
        JOINT lShldr
        {
          OFFSET 8.77824 -1.95073 1.46304
          CHANNELS 3 Zrotation Xrotation Yrotation
          JOINT lForeArm
          {
            OFFSET 28.1742 -1.7115 0.48768
            CHANNELS 3 Zrotation Xrotation Yrotation
            JOINT lHand
            {
              OFFSET 22.5879 0.773209 7.07136
              CHANNELS 3 Zrotation Xrotation Yrotation
              JOINT lThumb1
              {
                OFFSET 1.2192 -0.487915 3.41376
                CHANNELS 3 Zrotation Xrotation Yrotation
                JOINT lThumb2
                {
                  OFFSET 3.37035 -0.52449 3.41376
                  CHANNELS 3 Zrotation Xrotation Yrotation
                  End Site
                  {
                    OFFSET 1.78271 -1.18214 1.43049
                  }
                }
              }
              JOINT lIndex1
              {
                OFFSET 7.75947 0.938293 5.60832
                CHANNELS 3 Zrotation Xrotation Yrotation
                JOINT lIndex2
                {
                  OFFSET 2.54057 -0.884171 1.56538
                  CHANNELS 3 Zrotation Xrotation Yrotation
                  End Site
                  {
                    OFFSET 1.62519 -0.234802 1.16502
                  }
                }
              }
              JOINT lMid1
              {
                OFFSET 8.24714 1.18213 3.41376
                CHANNELS 3 Zrotation Xrotation Yrotation
                JOINT lMid2
                {
                  OFFSET 3.10165 -0.590103 1.0647
                  CHANNELS 3 Zrotation Xrotation Yrotation
                  End Site
                  {
                    OFFSET 2.48547 -0.328903 0.83742
                  }
                }
              }
              JOINT lRing1
              {
                OFFSET 8.82822 0.546677 1.51678
                CHANNELS 3 Zrotation Xrotation Yrotation
                JOINT lRing2
                {
                  OFFSET 2.60934 -0.819778 -0.0198488
                  CHANNELS 3 Zrotation Xrotation Yrotation
                  End Site
                  {
                    OFFSET 2.33842 -0.294052 0.168128
                  }
                }
              }
              JOINT lPinky1
              {
                OFFSET 8.27202 -0.0477905 -0.4584
                CHANNELS 3 Zrotation Xrotation Yrotation
                JOINT lPinky2
                {
                  OFFSET 1.82734 -0.647385 -0.700984
                  CHANNELS 3 Zrotation Xrotation Yrotation
                  End Site
                  {
                    OFFSET 1.69225 -0.51767 -0.607171
                  }
                }
              }
            }
          }
        }
      }
    }
  }
  JOINT rButtock
  {
    OFFSET -8.77824 4.35084 1.2192
    CHANNELS 3 Zrotation Xrotation Yrotation
    JOINT rThigh
    {
      OFFSET 0 -1.70687 -2.19456
      CHANNELS 3 Zrotation Xrotation Yrotation
      JOINT rShin
      {
        OFFSET 0 -36.8199 0.73152
        CHANNELS 3 Zrotation Xrotation Yrotation
        JOINT rFoot
        {
          OFFSET 0.73152 -45.1104 -5.12064
          CHANNELS 3 Zrotation Xrotation Yrotation
          End Site
          {
            OFFSET -1.1221 -3.69964 12.103
          }
        }
      }
    }
  }
  JOINT lButtock
  {
    OFFSET 8.77824 4.35084 1.2192
    CHANNELS 3 Zrotation Xrotation Yrotation
    JOINT lThigh
    {
      OFFSET 0 -1.70687 -2.19456
      CHANNELS 3 Zrotation Xrotation Yrotation
      JOINT lShin
      {
        OFFSET 0 -36.8199 0.73152
        CHANNELS 3 Zrotation Xrotation Yrotation
        JOINT lFoot
        {
          OFFSET -0.73152 -45.1104 -5.12064
          CHANNELS 3 Zrotation Xrotation Yrotation
          End Site
          {
            OFFSET 1.1221 -3.69964 12.103
          }
        }
      }
    }
  }
}
MOTION
Frames:	4
Frame Time:	0.03333
-5.516680059372447 65.74789881706238 -88.17579995375127 -377.77598714422106 -45.47630107891534 -706.5879873740215 4.615750060427645 15.389900058635913 14.524800251193145 -1.263979973485456 -12.809800368531828 4.060489831851458 -0.42313899694259044 11.687999853965179 7.720829616083135 5.933209881505772 -23.507699415506544 16.586699465383887 -0.0 0.0 0.0 -0.0 0.0 0.0 3.1025899371294485e-13 5.454579937532841e-13 6.268179957398671e-13 54.750198745269834 80.19109953553115 11.635299821876652 -26.98079938203925 -44.06700082670993 91.57729808950921 -40.48909843755254 -79.2890979235501 -47.98879982548287 1.3961800156020955e-09 -5.2195701210935995e-09 -3.520969846589892e-09 2.604399983901747e-09 -9.892980163118306e-09 -5.874100047115993e-09 1.3961800156020955e-09 -5.2195601818602205e-09 -3.5209801833926068e-09 7.730910121524428 5.474879855648998 0.41731399283890674 1.3961800156020955e-09 -5.2195601818602205e-09 -3.520969846589892e-09 2.90554006136521 0.9651829962377875 0.10290200252939893 1.3961800156020955e-09 -5.2195701210935995e-09 -3.520969846589892e-09 10.278599710243157 0.7318009818271524 0.025912300303053633 1.3961800156020955e-09 -5.2195701210935995e-09 -3.520969846589892e-09 2.221669932038622 -0.7334870246959406 -0.20891999872313852 3.100190058757281e-13 5.454710001719645e-13 6.264699769773431e-13 -64.18979680088884 11.636899793689729 -41.66790029583753 28.43129933531818 -35.31720065084343 -75.87090243266054 0.4228010093003806 18.16950018288596 -2.64368000009703 1.1126999598285984e-09 7.381839807232431e-10 -1.8277500766838827e-09 1.8980600148263183e-09 1.3343899883126305e-09 -3.180049967192502e-09 1.112690020595219e-09 7.381890000360997e-10 -1.8277299994324561e-09 -7.730910121524428 5.474879855648998 -0.41731399283890674 1.1126999598285984e-09 7.381839807232431e-10 -1.8277500766838827e-09 -2.90554006136521 0.9651829962377875 -0.10290200252939893 1.112690020595219e-09 7.381850243427479e-10 -1.8277500766838827e-09 -10.278599710243157 0.7318009818271524 -0.025912300303053633 1.1126999598285984e-09 7.381860182660859e-10 -1.8277500766838827e-09 -2.221669932038622 -0.7334870246959406 0.20891999872313852 -2.0321699793705798e-16 0.0 -3.882510030490358e-19 -15.803799277054932 -23.17849966543756 -31.58559851479325 -1.9863199693733773 71.37609837384773 3.2447300303123936 -7.7961401356453415 -14.95199955547347 -17.410900100076617 2.0321699793705798e-16 0.0 3.882510030490358e-19 73.28489719024533 -51.74549949163826 64.21379808563226 4.258079947463934 77.76059720994962 -4.147100045621805 -0.679507986324477 12.319099941764248 15.244700482165197
-5.621930057532154 65.61470031738281 -88.45479995943606 -376.9960068617623 -45.62029854209213 -707.0169778954116 4.068289907883613 15.159000391101754 14.280499752507422 -1.3071199818917856 -12.70569974784437 3.9661200962971543 -0.5078580220452105 12.024999680066315 7.863290286696676 6.073010193437593 -24.07499956004217 16.941300688976145 -0.0 0.0 0.0 -0.0 0.0 0.0 -3.347630137095129e-14 -2.1724099712338903e-14 6.528460234327343e-13 55.284299047797326 79.91250294947551 11.323499978718278 -26.977199872346656 -44.076501619845416 91.59640212861774 -40.489600456456536 -79.2885993197407 -47.989298429292276 1.5667599963919324e-10 7.106389856890958e-10 -1.992649909837711e-09 3.9443400401335314e-10 7.087579857720116e-10 -3.358829939760904e-09 1.5667799990991086e-10 7.106440050019526e-10 -1.992649909837711e-09 7.730910121524428 5.474879855648998 0.41731399283890674 1.566739993684756e-10 7.106410232319386e-10 -1.992649909837711e-09 2.90554006136521 0.9651829962377875 0.10290200252939893 1.5667899383324884e-10 7.106399796124338e-10 -1.992649909837711e-09 10.278599710243157 0.7318009818271524 0.025912300303053633 1.566739993684756e-10 7.106389856890958e-10 -1.992649909837711e-09 2.221669932038622 -0.7334870246959406 -0.20891999872313852 -3.364069849922873e-14 -2.1711199456124508e-14 6.52547992025586e-13 -63.89689779871119 11.601200102445365 -41.433901429967484 28.434099712877885 -35.592798783853446 -76.32539688041153 0.45892601322271026 18.911699273950813 -2.7595799860190957 1.1977600184833223e-09 5.774800197886856e-11 -2.429710005869039e-09 2.0379600918298398e-09 1.6952599963418343e-10 -4.217650073528381e-09 1.1977499798576088e-09 5.7756599415741885e-11 -2.4297000666356597e-09 -7.730910121524428 5.474879855648998 -0.41731399283890674 1.1977600184833223e-09 5.775620184640671e-11 -2.429710005869039e-09 -2.90554006136521 0.9651829962377875 -0.10290200252939893 1.1977499798576088e-09 5.775789772810209e-11 -2.429710005869039e-09 -10.278599710243157 0.7318009818271524 -0.025912300303053633 1.1977699577167018e-09 5.775259887430661e-11 -2.429710005869039e-09 -2.221669932038622 -0.7334870246959406 0.20891999872313852 -2.0321699793705798e-16 0.0 -3.882510030490358e-19 -16.273999744802364 -23.929799983571453 -31.567498513492716 -2.1307199868243787 72.20210047093404 3.3688599672975013 -7.841120346424461 -14.883200767511225 -17.48069951075227 2.0321699793705798e-16 0.0 3.882510030490358e-19 73.05909796647389 -51.41899937383873 64.69540155419904 4.136479955236082 77.45480281061899 -4.012439877927242 -0.6992259954063633 12.461400102932293 14.853199161581944
-5.763330063200556 65.46170115470886 -88.63179995678365 -376.20799427683954 -45.7522987779918 -707.5290235171092 3.6494298376930505 14.953099215929843 14.080200186228566 -1.3922700292836305 -12.560500171373654 3.885450012670603 -0.5809300004677985 12.324099640236698 7.976669719371595 6.244059901482692 -24.448100351001408 17.228699681324652 -0.0 0.0 0.0 -0.0 0.0 0.0 -3.689219943340878e-13 -6.090809775787361e-13 6.076850200156011e-13 56.3740010883595 79.45800167153534 10.427199867146893 -26.983399976565735 -44.059999882810665 91.56339865454824 -41.9131006719464 -79.51900209101274 -49.4375000239155 -1.361169960553552e-09 7.883649635468992e-09 -1.5330000235736213e-10 -2.311759930645635e-09 1.352229997819494e-08 -3.3393299590088515e-10 -1.361169960553552e-09 7.883649635468992e-09 -1.5330000235736213e-10 7.730910121524428 5.474879855648998 0.41731399283890674 -1.361169960553552e-09 7.883649635468992e-09 -1.5329600181592683e-10 2.90554006136521 0.9651829962377875 0.10290200252939893 -1.361169960553552e-09 7.883649635468992e-09 -1.5330000235736213e-10 10.278599710243157 0.7318009818271524 0.025912300303053633 -1.361169960553552e-09 7.883649635468992e-09 -1.5329299519782952e-10 2.221669932038622 -0.7334870246959406 -0.20891999872313852 -3.6899100600335417e-13 -6.090719992673337e-13 6.074360053355689e-13 -63.67969778310478 11.618300334806138 -41.25650092665474 28.43310079771177 -35.79259889254924 -76.66239841405996 0.5039309834375705 19.756199230856822 -2.893319999166411 1.3010300447897639e-09 -8.060340083004007e-10 -2.933870065230536e-09 2.2104000262100798e-09 -1.3145900414971823e-09 -5.087160051580257e-09 1.3010200061640506e-09 -8.060229757513494e-10 -2.933870065230536e-09 -7.730910121524428 5.474879855648998 -0.41731399283890674 1.3010300447897639e-09 -8.060190000579976e-10 -2.9338800044639155e-09 -2.90554006136521 0.9651829962377875 -0.10290200252939893 1.3010200061640506e-09 -8.060160182879837e-10 -2.9338800044639155e-09 -10.278599710243157 0.7318009818271524 -0.025912300303053633 1.3010399840231435e-09 -8.060270011408681e-10 -2.9338800044639155e-09 -2.221669932038622 -0.7334870246959406 0.20891999872313852 -2.0321699793705798e-16 0.0 -3.882510030490358e-19 -16.798599254194365 -24.515500657731096 -31.679800483826067 -2.284840003794543 73.00210003785013 3.4998800710512707 -7.8948696663242295 -14.918599930432109 -17.497899634629658 2.0321699793705798e-16 0.0 3.882510030490358e-19 72.6750979011466 -50.91439865833652 64.97349953644527 3.967290193079342 77.01079953343314 -3.8307598342126647 -0.6858079820601675 12.424099586101208 14.668099327527306
-5.906230068649165 65.31929969787598 -88.76679996028543 -375.5969928744469 -45.853699766409804 -708.0629803856641 3.4062400985211 14.781000646960324 13.992399811995346 -1.4512200046278354 -12.46089979157559 3.846140139563064 -0.6126649803423819 12.359800185254707 7.981460243300713 6.393930046685227 -24.059100587201673 17.234100653410838 -0.0 0.0 0.0 -0.0 0.0 0.0 -2.2095699585111596e-13 -3.4111698895473094e-13 1.1257199991411427e-12 58.41379951794337 79.05069700075998 8.416520241542075 -26.997099628493487 -44.023499351886116 91.49080057386017 -42.6329001576282 -79.62909791024417 -50.169300151969004 -1.5827700389754988e-09 9.821319880728922e-09 -2.3535200172592483e-09 -2.5516500869403393e-09 1.623839984980168e-08 -4.0652800355421785e-09 -1.5827700389754988e-09 9.821330217531637e-09 -2.3535299564926277e-09 7.730910121524428 5.474879855648998 0.41731399283890674 -1.5827700389754988e-09 9.821330217531637e-09 -2.3535200172592483e-09 2.90554006136521 0.9651829962377875 0.10290200252939893 -1.5827700389754988e-09 9.821319880728922e-09 -2.3535200172592483e-09 10.278599710243157 0.7318009818271524 0.025912300303053633 -1.5827799782088784e-09 9.821319880728922e-09 -2.3535100780258686e-09 2.221669932038622 -0.7334870246959406 -0.20891999872313852 -2.2100200873666066e-13 -3.411119902191934e-13 1.1254399728882124e-12 -63.799601753984355 11.639299751409341 -41.298199231537666 28.433399618487957 -35.71470058506525 -76.53209889526363 0.5219689794270453 20.082699348656355 -2.9454200418250336 2.878160065784024e-09 -1.1260099848165205e-09 -5.4926199453585725e-09 4.900960043724668e-09 -1.7865199499940684e-09 -9.540130221895414e-09 2.8781499277659766e-09 -1.126000045583141e-09 -5.492610006125193e-09 -7.730910121524428 5.474879855648998 -0.41731399283890674 2.878160065784024e-09 -1.126000045583141e-09 -5.4926199453585725e-09 -2.90554006136521 0.9651829962377875 -0.10290200252939893 2.8781499277659766e-09 -1.126000045583141e-09 -5.4926199453585725e-09 -10.278599710243157 0.7318009818271524 -0.025912300303053633 2.8781700050174036e-09 -1.126000045583141e-09 -5.4926199453585725e-09 -2.221669932038622 -0.7334870246959406 0.20891999872313852 -2.0321699793705798e-16 0.0 -3.882510030490358e-19 -17.41030075097695 -24.791199536031368 -32.06429915296277 -2.4438600411639566 73.74969839345387 3.63614981551243 -8.028429746675599 -15.088999489845586 -17.60060006653726 2.0321699793705798e-16 0.0 3.882510030490358e-19 72.08880129298187 -50.268901385540715 64.86289828321526 3.743919955331476 76.38190303541505 -3.595269852669434 -0.6418259927560753 12.198699928396202 14.708899462534378
